<svg width="30" height="30" viewBox="0 0 30 30" fill="none" xmlns="http://www.w3.org/2000/svg">
<path d="M15 25C9.32018 25 5 20.6798 5 15C5 9.32018 9.32018 5 15 5C20.6798 5 25 9.32018 25 15C25 20.6798 20.6798 25 15 25ZM15 27.5C21.9079 27.5 27.5 21.9079 27.5 15C27.5 8.0921 21.9079 2.5 15 2.5C8.09211 2.5 2.5 8.0921 2.5 15C2.5 21.9079 8.09211 27.5 15 27.5ZM20 13.75H16.25V10C16.25 9.32018 15.6798 8.75 15 8.75C14.3202 8.75 13.75 9.32018 13.75 10V16.25H20C20.6798 16.25 21.25 15.6798 21.25 15C21.25 14.3202 20.6798 13.75 20 13.75ZM10 16.25H13.75V20C13.75 20.6798 14.3202 21.25 15 21.25C15.6798 21.25 16.25 20.6798 16.25 20V13.75H10C9.32018 13.75 8.75 14.3202 8.75 15C8.75 15.6798 9.32018 16.25 10 16.25Z" fill="#7752FE"/>
</svg>
