<svg width="9" height="16" viewBox="0 0 9 16" fill="none" xmlns="http://www.w3.org/2000/svg">
<path d="M2.37719 15.1272L8.62719 8.87719C8.86842 8.6579 9 8.35088 9 8C9 7.32017 8.42983 6.75 7.75 6.75C7.39912 6.75 7.09211 6.88158 6.87281 7.12281L0.622808 13.3728C0.38158 13.5921 0.25 13.8991 0.25 14.25C0.25 14.9298 0.820176 15.5 1.5 15.5C1.85088 15.5 2.15789 15.3684 2.37719 15.1272ZM8.62719 7.12281L2.37719 0.872807C2.15789 0.631578 1.85088 0.5 1.5 0.5C0.820176 0.5 0.25 1.07018 0.25 1.75C0.25 2.10088 0.38158 2.40789 0.622808 2.62719L6.87281 8.87719C7.09211 9.11842 7.39912 9.25 7.75 9.25C8.42983 9.25 9 8.67982 9 8C9 7.64912 8.86842 7.34211 8.62719 7.12281Z" fill="#A0A0A0"/>
</svg>
