<svg width="40" height="40" viewBox="0 0 40 40" fill="none" xmlns="http://www.w3.org/2000/svg">
<path d="M20 33.3333C12.4269 33.3333 6.66671 27.5731 6.66671 20C6.66671 12.4269 12.4269 6.66668 20 6.66668C27.5731 6.66668 33.3334 12.4269 33.3334 20C33.3334 27.5731 27.5731 33.3333 20 33.3333ZM20 36.6667C29.2106 36.6667 36.6667 29.2105 36.6667 20C36.6667 10.7895 29.2106 3.33334 20 3.33334C10.7895 3.33334 3.33337 10.7895 3.33337 20C3.33337 29.2105 10.7895 36.6667 20 36.6667ZM18.3334 11.6667V20C18.3334 20.9064 19.0936 21.6667 20 21.6667C20.9065 21.6667 21.6667 20.9064 21.6667 20V11.6667C21.6667 10.7602 20.9065 10 20 10C19.0936 10 18.3334 10.7602 18.3334 11.6667ZM18.8305 21.1696L24.9416 27.2807C25.234 27.6024 25.6433 27.7778 26.1112 27.7778C27.0176 27.7778 27.7778 27.0176 27.7778 26.1111C27.7778 25.6433 27.6024 25.2339 27.2807 24.9415L21.1696 18.8304C20.8772 18.5088 20.4679 18.3333 20 18.3333C19.0936 18.3333 18.3334 19.0936 18.3334 20C18.3334 20.4678 18.5088 20.8772 18.8305 21.1696Z" fill="#DE496E"/>
</svg>
