<svg width="20" height="20" viewBox="0 0 20 20" fill="none" xmlns="http://www.w3.org/2000/svg">
<path d="M15.2983 6.29822L4.49124 17.0877L1.50878 17.8421C1.92983 18.5087 2.05264 18.8596 2.0351 19.0351L2.91229 15.5087L13.7018 4.70173C13.8947 4.52629 14 4.28068 14 3.99997C14 3.45611 13.5439 2.99997 13 2.99997C12.7193 2.99997 12.4737 3.10524 12.2983 3.29822L1.08773 14.4912L0.0701841 18.614C-0.0877105 19.4386 0.561412 20.0877 1.38597 19.9298L5.50878 18.9123L16.7018 7.70173C16.8947 7.52629 17 7.28068 17 6.99997C17 6.45611 16.5439 5.99997 16 5.99997C15.7193 5.99997 15.4737 6.10524 15.2983 6.29822ZM16.7018 7.70173L18.193 6.2105C19.4211 4.98243 19.4561 3.01752 18.2105 1.78945C16.9825 0.543834 15.0176 0.578922 13.7895 1.80699L12.2983 3.29822C12.1053 3.47366 12 3.71927 12 3.99997C12 4.54383 12.4562 4.99997 13 4.99997C13.2807 4.99997 13.5263 4.89471 13.7018 4.70173L15.193 3.2105C15.7544 2.66664 16.2632 2.6491 16.807 3.19296C17.3509 3.73682 17.3333 4.24559 16.7895 4.80699L15.2983 6.29822C15.1053 6.47366 15 6.71927 15 6.99997C15 7.54383 15.4562 7.99997 16 7.99997C16.2807 7.99997 16.5263 7.89471 16.7018 7.70173ZM16.7018 6.29822L13.7018 3.29822C13.5263 3.10524 13.2807 2.99997 13 2.99997C12.4562 2.99997 12 3.45611 12 3.99997C12 4.28068 12.1053 4.52629 12.2983 4.70173L15.2983 7.70173C15.4737 7.89471 15.7193 7.99997 16 7.99997C16.5439 7.99997 17 7.54383 17 6.99997C17 6.71927 16.8947 6.47366 16.7018 6.29822Z" fill="#1E293B"/>
</svg>
